<?xml version="1.0" encoding="iso-8859-1"?>
<!-- Generator: Adobe Illustrator 19.1.0, SVG Export Plug-In . SVG Version: 6.00 Build 0)  -->
<svg version="1.1" id="Capa_1" xmlns="http://www.w3.org/2000/svg" xmlns:xlink="http://www.w3.org/1999/xlink" x="0px" y="0px"
	 viewBox="0 0 269.551 269.551" style="enable-background:new 0 0 269.551 269.551;" xml:space="preserve">
<g>
	<path d="M134.775,42.052c11.76,0,21-9.672,21-21.026c0-11.774-9.66-21.026-21-21.026c-11.76,0-21,9.672-21,21.026
		C113.355,32.8,123.015,42.052,134.775,42.052z M134.775,8.41c7.14,0,12.6,5.887,12.6,12.615c0,7.149-5.88,12.615-12.6,12.615
		c-7.14,0-12.6-5.887-12.6-12.615C121.755,13.877,127.635,8.41,134.775,8.41z"/>
	<path d="M189.375,119.847c-2.52,0-4.2,1.682-4.2,4.205c0,5.887-4.62,10.513-10.5,10.513c-5.88,0-10.5-4.626-10.5-10.513
		s4.62-10.513,10.5-10.513c2.52,0,4.2-1.682,4.2-4.205s-1.68-4.205-4.2-4.205c-10.5,0-18.9,8.41-18.9,18.923s8.4,18.923,18.9,18.923
		s18.9-8.41,18.9-18.923C193.575,121.529,191.475,119.847,189.375,119.847z"/>
	<path d="M235.155,121.95h-7.56c-5.88-16.821-15.96-31.959-29.4-43.313V43.313c0-2.523-1.68-4.205-4.2-4.205
		c-13.86,0-26.04,7.99-31.92,19.764c-10.08-3.364-18.06-4.205-28.14-4.205c-37.8,0-70.98,21.026-87.78,52.144
		c-1.68,1.682-4.2,2.944-7.14,2.944c-5.46,0-10.08-4.626-10.08-10.092c0-4.205,2.94-8.41,7.14-9.672
		c2.1-0.841,3.36-2.944,2.52-5.467c-0.84-2.103-2.94-3.364-5.46-2.523c-7.56,2.523-12.6,9.672-12.6,17.662
		c0,10.092,8.4,18.503,18.48,18.503c0.42,0,1.26,0,1.68,0c-4.2,10.933-6.72,22.708-6.72,35.323c0,29.016,13.86,58.031,37.38,78.216
		v22.708c0,8.41,8.82,15.139,16.38,15.139h9.66c7.56,0,12.6-5.887,12.6-15.139v-4.626c14.7,3.364,31.5,3.364,46.2,0v4.626
		c0,7.99,6.72,15.139,14.7,15.139h8.82c7.98,0,14.7-6.728,14.7-15.139v-22.287c15.96-11.774,26.88-27.334,33.6-46.677h7.56
		c6.72,0,13.44-6.728,13.44-13.877v-37.005C248.595,126.996,241.455,121.95,235.155,121.95z M240.195,171.15
		c0,2.523-2.94,5.467-5.04,5.467h-8.4c-4.2-0.421-5.88,2.103-6.72,4.205c-5.88,18.923-16.8,34.062-32.34,44.995
		c-1.26,0.841-1.68,2.103-1.68,3.364v24.81c0,3.785-2.94,6.728-6.3,6.728h-8.82c-3.36,0-6.3-2.944-6.3-6.728v-10.092
		c0-1.262-0.42-2.523-1.68-3.364c-0.84-0.841-2.52-0.841-3.78-0.841c-7.98,2.103-17.64,3.364-26.04,3.364
		c-8.82,0-18.06-1.262-26.04-3.364c-1.26-0.421-2.52,0-3.78,0.841c-1.26,0.841-1.68,2.103-1.68,3.364v10.092
		c0,1.682-0.42,6.728-4.2,6.728h-8.82c-3.78,0-7.98-3.364-7.98-6.728v-24.81c0-1.262-0.42-2.523-1.68-3.364
		c-22.68-18.503-36.12-45.836-36.12-72.749c0-15.139,3.78-29.016,10.08-41.631c0.42-0.841,1.26-1.262,1.68-2.103
		c0.84,0,0.84-0.841,0.84-1.682c15.96-26.493,45.36-44.575,78.54-44.575c9.24,0,16.38,0.421,25.2,3.364
		c-0.42,2.523-0.84,5.046-0.84,7.569c0,2.523,1.68,4.205,4.2,4.205c2.52,0,4.2-1.682,4.2-4.205c0-13.457,10.08-24.39,23.1-26.072
		v31.959c0,1.262,0.84,2.523,1.68,3.364c0.42,0.421,0.42,1.262,1.26,1.682c13.02,10.933,22.26,25.231,27.3,41.631l0,0
		c0.42,1.682,2.1,4.205,7.14,4.205h8.4c2.52,0,5.04,1.682,5.04,3.785v36.585H240.195z"/>
</g>
<g>
</g>
<g>
</g>
<g>
</g>
<g>
</g>
<g>
</g>
<g>
</g>
<g>
</g>
<g>
</g>
<g>
</g>
<g>
</g>
<g>
</g>
<g>
</g>
<g>
</g>
<g>
</g>
<g>
</g>
</svg>
